<?xml version="1.0" encoding="UTF-8" standalone="no"?>
<!-- Created with Inkscape (http://www.inkscape.org/) -->

<svg
   xmlns:dc="http://purl.org/dc/elements/1.1/"
   xmlns:cc="http://creativecommons.org/ns#"
   xmlns:rdf="http://www.w3.org/1999/02/22-rdf-syntax-ns#"
   xmlns:svg="http://www.w3.org/2000/svg"
   xmlns="http://www.w3.org/2000/svg"
   xmlns:sodipodi="http://sodipodi.sourceforge.net/DTD/sodipodi-0.dtd"
   xmlns:inkscape="http://www.inkscape.org/namespaces/inkscape"
   width="531.49603"
   height="744.09448"
   id="svg3019"
   version="1.1"
   inkscape:version="0.48.4 r9939"
   sodipodi:docname="x'''y'''z'''.pdf">
  <defs
     id="defs3021" />
  <sodipodi:namedview
     id="base"
     pagecolor="#ffffff"
     bordercolor="#666666"
     borderopacity="1.0"
     inkscape:pageopacity="0.0"
     inkscape:pageshadow="2"
     inkscape:zoom="0.75000002"
     inkscape:cx="558.49156"
     inkscape:cy="414.8232"
     inkscape:document-units="px"
     inkscape:current-layer="layer1"
     showgrid="true"
     inkscape:window-width="1600"
     inkscape:window-height="838"
     inkscape:window-x="-8"
     inkscape:window-y="-8"
     inkscape:window-maximized="1"
     units="cm">
    <inkscape:grid
       type="xygrid"
       id="grid3027"
       empspacing="5"
       visible="true"
       enabled="true"
       snapvisiblegridlinesonly="true" />
  </sodipodi:namedview>
  <metadata
     id="metadata3024">
    <rdf:RDF>
      <cc:Work
         rdf:about="">
        <dc:format>image/svg+xml</dc:format>
        <dc:type
           rdf:resource="http://purl.org/dc/dcmitype/StillImage" />
        <dc:title></dc:title>
      </cc:Work>
    </rdf:RDF>
  </metadata>
  <g
     inkscape:label="Laag 1"
     inkscape:groupmode="layer"
     id="layer1"
     transform="translate(0,-308.26638)">
    <path
       style="fill:none;stroke:#000000;stroke-width:2;stroke-linecap:butt;stroke-linejoin:miter;stroke-miterlimit:4;stroke-opacity:1;stroke-dasharray:none"
       d="m 272.78477,348.02866 0,239.99999 -239.99999,0"
       id="path3029"
       inkscape:connector-curvature="0" />
    <path
       sodipodi:type="arc"
       style="fill:#000000;fill-opacity:0;stroke:#060000;stroke-width:2;stroke-miterlimit:4;stroke-opacity:1;stroke-dasharray:none"
       id="path3031"
       sodipodi:cx="200"
       sodipodi:cy="287.36218"
       sodipodi:rx="15"
       sodipodi:ry="15"
       d="m 215,287.36218 c 0,8.28427 -6.71573,15 -15,15 -8.28427,0 -15,-6.71573 -15,-15 0,-8.28427 6.71573,-15 15,-15 8.28427,0 15,6.71573 15,15 z"
       transform="matrix(0,-1,1,0,-15.648829,787.31437)" />
    <path
       sodipodi:type="arc"
       style="fill:#000000;fill-opacity:1;stroke:#060000;stroke-width:2;stroke-miterlimit:4;stroke-opacity:1;stroke-dasharray:none"
       id="path3804"
       sodipodi:cx="202.5"
       sodipodi:cy="294.86218"
       sodipodi:rx="2.5"
       sodipodi:ry="2.5"
       d="m 205,294.86218 c 0,1.38071 -1.11929,2.5 -2.5,2.5 -1.38071,0 -2.5,-1.11929 -2.5,-2.5 0,-1.38071 1.11929,-2.5 2.5,-2.5 1.38071,0 2.5,1.11929 2.5,2.5 z"
       transform="matrix(0,-1,1,0,-22.077409,790.50885)" />
    <path
       style="fill:#000000;fill-opacity:1;stroke:#000000;stroke-width:1px;stroke-linecap:butt;stroke-linejoin:miter;stroke-opacity:1"
       d="m 32.78478,588.02865 0,5 -5,-5 5,-5 z"
       id="path3806"
       inkscape:connector-curvature="0" />
    <path
       style="fill:#000000;fill-opacity:1;stroke:#000000;stroke-width:1px;stroke-linecap:butt;stroke-linejoin:miter;stroke-opacity:1"
       d="m 267.78477,348.02866 10,0 -5,-5 z"
       id="path3808"
       inkscape:connector-curvature="0" />
    <path
       style="fill:none;stroke:#000000;stroke-width:1;stroke-linecap:butt;stroke-linejoin:miter;stroke-miterlimit:4;stroke-opacity:1;stroke-dasharray:1, 1;stroke-dashoffset:0"
       d="m 272.39191,586.87389 0,360"
       id="path3825"
       inkscape:connector-curvature="0" />
    <path
       style="fill:none;stroke:#000000;stroke-width:1;stroke-linecap:butt;stroke-linejoin:miter;stroke-miterlimit:4;stroke-opacity:1;stroke-dasharray:1, 1;stroke-dashoffset:0"
       d="m 272.39191,586.87389 170,320"
       id="path3827"
       inkscape:connector-curvature="0" />
    <path
       style="fill:none;stroke:#000000;stroke-width:2;stroke-linecap:butt;stroke-linejoin:miter;stroke-miterlimit:4;stroke-opacity:1;stroke-dasharray:none"
       d="M 333.03194,702.12248 446.12899,913.80396 234.44749,1026.901"
       id="path3029-1"
       inkscape:connector-curvature="0" />
    <path
       sodipodi:type="arc"
       style="fill:#000000;fill-opacity:0;stroke:#060000;stroke-width:2;stroke-miterlimit:4;stroke-opacity:1;stroke-dasharray:none"
       id="path3031-7"
       sodipodi:cx="200"
       sodipodi:cy="287.36218"
       sodipodi:rx="15"
       sodipodi:ry="15"
       d="m 215,287.36218 c 0,8.28427 -6.71573,15 -15,15 -8.28427,0 -15,-6.71573 -15,-15 0,-8.28427 6.71573,-15 15,-15 8.28427,0 15,6.71573 15,15 z"
       transform="matrix(-0.47123772,-0.88200624,0.88200624,-0.47123772,285.63969,1225.496)" />
    <path
       sodipodi:type="arc"
       style="fill:#000000;fill-opacity:1;stroke:#060000;stroke-width:2;stroke-miterlimit:4;stroke-opacity:1;stroke-dasharray:none"
       id="path3804-4"
       sodipodi:cx="202.5"
       sodipodi:cy="294.86218"
       sodipodi:rx="2.5"
       sodipodi:ry="2.5"
       d="m 205,294.86218 c 0,1.38071 -1.11929,2.5 -2.5,2.5 -1.38071,0 -2.5,-1.11929 -2.5,-2.5 0,-1.38071 1.11929,-2.5 2.5,-2.5 1.38071,0 2.5,1.11929 2.5,2.5 z"
       transform="matrix(-0.47123772,-0.88200624,0.88200624,-0.47123772,281.47502,1231.3429)" />
    <path
       style="fill:#000000;fill-opacity:1;stroke:#000000;stroke-width:1px;stroke-linecap:butt;stroke-linejoin:miter;stroke-opacity:1"
       d="m 234.44749,1026.901 2.3562,4.41 -6.76622,-2.0538 2.05384,-6.7662 z"
       id="path3806-0"
       inkscape:connector-curvature="0" />
    <path
       style="fill:#000000;fill-opacity:1;stroke:#000000;stroke-width:1px;stroke-linecap:butt;stroke-linejoin:miter;stroke-opacity:1"
       d="m 328.62191,704.47867 8.82006,-4.71237 -6.76622,-2.05386 z"
       id="path3808-9"
       inkscape:connector-curvature="0" />
    <path
       style="fill:#000000;fill-opacity:1;stroke:#060000;stroke-width:1;stroke-miterlimit:4;stroke-opacity:1;stroke-dasharray:none;stroke-dashoffset:0"
       id="path3003"
       d="m 273.10561,629.27828 c 0.4955,0.16106 0.99932,0.28983 1.51077,0.38997 1.11826,0.19067 2.25547,0.22166 3.38699,0.25281 1.47549,0.0624 2.94715,-0.0634 4.41033,-0.24028 1.58652,-0.23749 3.17109,-0.49198 4.73641,-0.84483 0.97686,-0.22385 1.92504,-0.54739 2.80581,-1.02654 -1.51476,0.92569 -0.74271,0.41821 -0.43455,0.15733 0.17678,-0.14966 0.33991,-0.31219 0.50506,-0.47434 0.34224,-0.33509 0.72072,-0.62943 1.09143,-0.93177 0.27115,-0.22846 0.54597,-0.45279 0.83917,-0.65251 0.15228,-0.0961 0.28819,-0.21476 0.43176,-0.32263 0,0 1.15435,-0.4474 1.15435,-0.4474 l 0,0 c -0.16383,0.0823 -0.28659,0.22639 -0.44145,0.32425 -0.30696,0.18679 -0.5849,0.41634 -0.86036,0.64606 -0.36941,0.30265 -0.74899,0.59336 -1.09622,0.92174 -0.11171,0.10998 -0.2192,0.22425 -0.33244,0.33266 -0.52705,0.50458 -1.13143,0.85994 -1.79069,1.19703 -0.87575,0.44751 -1.81142,0.74849 -2.77131,0.96009 -1.56535,0.34184 -3.14883,0.58893 -4.7327,0.82816 -1.47334,0.17591 -2.95466,0.30505 -4.44023,0.24177 -1.14892,-0.0288 -2.30161,-0.064 -3.43939,-0.23955 -0.52024,-0.10213 -1.03135,-0.23681 -1.54461,-0.36695 0,0 1.01187,-0.70507 1.01187,-0.70507 z"
       inkscape:connector-curvature="0" />
    <text
       xml:space="preserve"
       style="font-size:30.73397064px;font-style:normal;font-weight:normal;line-height:125%;letter-spacing:0px;word-spacing:0px;fill:#000000;fill-opacity:1;stroke:none;font-family:Sans"
       x="34"
       y="612.36084"
       id="text3773"
       sodipodi:linespacing="125%"><tspan
         sodipodi:role="line"
         id="tspan3775"
         x="34"
         y="612.36084">x''</tspan></text>
    <text
       xml:space="preserve"
       style="font-size:23.75118637px;font-style:normal;font-weight:normal;line-height:125%;letter-spacing:0px;word-spacing:0px;fill:#000000;fill-opacity:1;stroke:none;font-family:Sans"
       x="294"
       y="592.36084"
       id="text3777"
       sodipodi:linespacing="125%"><tspan
         sodipodi:role="line"
         id="tspan3779"
         x="294"
         y="592.36084">y''</tspan></text>
    <text
       xml:space="preserve"
       style="font-size:30.73397064px;font-style:normal;font-weight:normal;line-height:125%;letter-spacing:0px;word-spacing:0px;fill:#000000;fill-opacity:1;stroke:none;font-family:Sans"
       x="284"
       y="362.36084"
       id="text3781"
       sodipodi:linespacing="125%"><tspan
         sodipodi:role="line"
         id="tspan3783"
         x="284"
         y="362.36084">z''</tspan></text>
    <text
       xml:space="preserve"
       style="font-size:23.73867226px;font-style:normal;font-weight:normal;line-height:125%;letter-spacing:0px;word-spacing:0px;fill:#000000;fill-opacity:1;stroke:none;font-family:Sans"
       x="280"
       y="652.36084"
       id="text3785"
       sodipodi:linespacing="125%"><tspan
         sodipodi:role="line"
         id="tspan3787"
         x="280"
         y="652.36084">β</tspan></text>
    <text
       xml:space="preserve"
       style="font-size:30.73397064px;font-style:normal;font-weight:normal;line-height:125%;letter-spacing:0px;word-spacing:0px;fill:#000000;fill-opacity:1;stroke:none;font-family:Sans"
       x="254"
       y="1042.3608"
       id="text3789"
       sodipodi:linespacing="125%"><tspan
         sodipodi:role="line"
         id="tspan3791"
         x="254"
         y="1042.3608">x'''</tspan></text>
    <text
       xml:space="preserve"
       style="font-size:30.73397064px;font-style:normal;font-weight:normal;line-height:125%;letter-spacing:0px;word-spacing:0px;fill:#000000;fill-opacity:1;stroke:none;font-family:Sans"
       x="354"
       y="712.36084"
       id="text3793"
       sodipodi:linespacing="125%"><tspan
         sodipodi:role="line"
         id="tspan3795"
         x="354"
         y="712.36084">z'''</tspan></text>
    <text
       xml:space="preserve"
       style="font-size:23.75118637px;font-style:normal;font-weight:normal;line-height:125%;letter-spacing:0px;word-spacing:0px;fill:#000000;fill-opacity:1;stroke:none;font-family:Sans"
       x="464"
       y="937.3609"
       id="text3797"
       sodipodi:linespacing="125%"><tspan
         sodipodi:role="line"
         id="tspan3799"
         x="464"
         y="937.3609">y'''</tspan></text>
  </g>
</svg>
