<?xml version="1.0" encoding="UTF-8" standalone="no"?>
<!-- Created with Inkscape (http://www.inkscape.org/) -->

<svg
   xmlns:dc="http://purl.org/dc/elements/1.1/"
   xmlns:cc="http://creativecommons.org/ns#"
   xmlns:rdf="http://www.w3.org/1999/02/22-rdf-syntax-ns#"
   xmlns:svg="http://www.w3.org/2000/svg"
   xmlns="http://www.w3.org/2000/svg"
   xmlns:sodipodi="http://sodipodi.sourceforge.net/DTD/sodipodi-0.dtd"
   xmlns:inkscape="http://www.inkscape.org/namespaces/inkscape"
   width="354.33069"
   height="248.03149"
   id="svg2"
   version="1.1"
   inkscape:version="0.48.4 r9939"
   sodipodi:docname="x'y'z'.pdf">
  <defs
     id="defs4">
    <inkscape:perspective
       sodipodi:type="inkscape:persp3d"
       inkscape:vp_x="0 : 526.18109 : 1"
       inkscape:vp_y="0 : 1000 : 0"
       inkscape:vp_z="744.09448 : 526.18109 : 1"
       inkscape:persp3d-origin="372.04724 : 350.78739 : 1"
       id="perspective4395" />
  </defs>
  <sodipodi:namedview
     id="base"
     pagecolor="#ffffff"
     bordercolor="#666666"
     borderopacity="1.0"
     inkscape:pageopacity="0.0"
     inkscape:pageshadow="2"
     inkscape:zoom="1"
     inkscape:cx="517.51144"
     inkscape:cy="30.165931"
     inkscape:document-units="px"
     inkscape:current-layer="layer1"
     showgrid="true"
     inkscape:window-width="1600"
     inkscape:window-height="838"
     inkscape:window-x="-8"
     inkscape:window-y="-8"
     inkscape:window-maximized="1"
     units="cm">
    <inkscape:grid
       type="xygrid"
       id="grid3781"
       empspacing="5"
       visible="true"
       enabled="true"
       snapvisiblegridlinesonly="true" />
  </sodipodi:namedview>
  <metadata
     id="metadata7">
    <rdf:RDF>
      <cc:Work
         rdf:about="">
        <dc:format>image/svg+xml</dc:format>
        <dc:type
           rdf:resource="http://purl.org/dc/dcmitype/StillImage" />
        <dc:title></dc:title>
      </cc:Work>
    </rdf:RDF>
  </metadata>
  <g
     inkscape:label="Laag 1"
     inkscape:groupmode="layer"
     id="layer1"
     transform="translate(0,-804.3294)">
    <path
       style="fill:none;stroke:#000000;stroke-width:1.16776001;stroke-linecap:butt;stroke-linejoin:miter;stroke-miterlimit:4;stroke-opacity:1;stroke-dasharray:none"
       d="m 342.11341,1022.8623 -210.1968,0 0,-210.19681"
       id="path3787"
       inkscape:connector-curvature="0" />
    <path
       style="fill:none;stroke:#000000;stroke-width:1.16776001;stroke-linecap:butt;stroke-linejoin:miter;stroke-miterlimit:4;stroke-opacity:1;stroke-dasharray:none"
       d="M 313.70094,917.58763 131.66518,1022.686 26.566774,840.65027"
       id="path3787-1"
       inkscape:connector-curvature="0" />
    <path
       style="fill:#000000;fill-opacity:1;stroke:#000000;stroke-width:0.58388001px;stroke-linecap:butt;stroke-linejoin:miter;stroke-opacity:1"
       d="m 342.11341,1022.8623 0,-2.9194 2.9194,2.9194 -2.9194,2.9194 z"
       id="path3807"
       inkscape:connector-curvature="0" />
    <path
       style="fill:#000000;fill-opacity:1;stroke:#000000;stroke-width:0.58388001px;stroke-linecap:butt;stroke-linejoin:miter;stroke-opacity:1"
       d="m 131.91661,812.66549 -2.9194,0 2.9194,-2.9194 2.9194,2.9194 z"
       id="path4317"
       inkscape:connector-curvature="0" />
    <path
       style="fill:#000000;fill-opacity:1;stroke:#000000;stroke-width:0.58388001px;stroke-linecap:butt;stroke-linejoin:miter;stroke-opacity:1"
       d="m 313.50329,917.76389 -1.16777,-2.33552 3.50329,0.58388 -1.16777,3.50328 z"
       id="path4321"
       inkscape:connector-curvature="0" />
    <path
       style="fill:#000000;fill-opacity:1;stroke:#000000;stroke-width:0.58388001px;stroke-linecap:butt;stroke-linejoin:miter;stroke-opacity:1"
       d="m 26.81821,840.69174 -2.335518,1.16775 0.583872,-3.50327 3.503283,1.16775 z"
       id="path4325"
       inkscape:connector-curvature="0" />
    <path
       style="fill:none;stroke:#000000;stroke-width:1.16776001;stroke-linecap:butt;stroke-linejoin:miter;stroke-miterlimit:4;stroke-opacity:1;stroke-dasharray:none"
       d="m 176.06523,997.35532 c -0.28994,0.16449 -0.75063,0.26782 -0.86953,0.49375 -0.0889,0.16877 0.64715,0.51762 0.80566,0.62899 0.10309,0.0727 0.16752,0.16197 0.26846,0.23592 0.29854,0.21831 0.33591,0.13104 0.67138,0.39315 0.12071,0.0943 0.48389,0.50086 0.67143,0.62898 0.16495,0.11268 0.40291,0.18889 0.53711,0.31449 0.0979,0.092 0.0257,0.2266 0.13444,0.3145 0.13015,0.1066 0.38831,0.1378 0.5371,0.2359 0.21435,0.1414 0.36383,0.3123 0.53711,0.4718 0.27534,0.2532 0.6106,0.5907 0.80566,0.8648 0.1091,0.1529 0.17912,0.3145 0.26846,0.4717 0.17913,0.2098 0.37929,0.4136 0.53711,0.6291 0.11168,0.1524 0.17912,0.3145 0.26846,0.4717 0.13445,0.1834 0.25988,0.3692 0.40292,0.5504 0.12586,0.1597 0.27705,0.3121 0.40291,0.4717 0.14304,0.1814 0.25043,0.3719 0.40292,0.5504 0.16151,0.1889 0.38444,0.3589 0.53714,0.5504 0.16151,0.2029 0.24098,0.426 0.40292,0.629 0.15248,0.1914 0.38573,0.3585 0.5371,0.5503 0.11856,0.1504 0.17912,0.3145 0.26847,0.4718 0.13445,0.2359 0.24527,0.4767 0.40291,0.7076 0.11168,0.1632 0.28436,0.3101 0.40292,0.4717 0.25128,0.3431 0.46777,0.7431 0.67137,1.1008 0.0893,0.1572 0.18514,0.3133 0.26848,0.4717 0.0958,0.1824 0.19544,0.3645 0.26846,0.5504 0.0615,0.1554 0.0928,0.3142 0.13444,0.4717 0.34192,1.3009 -0.0387,-0.1446 0.26848,1.0221 0.0481,0.1832 0.0777,0.3681 0.13444,0.5504 0.0344,0.1064 0.0979,0.2085 0.13445,0.3145 0.0532,0.1562 0.0855,0.3149 0.13445,0.4718 0.043,0.1315 0.11168,0.2601 0.13445,0.3931 0.0215,0.1303 -0.0387,0.2642 0,0.3931 0.0507,0.163 0.22207,0.3082 0.26846,0.4717 0.0443,0.1552 0,0.3146 0,0.4718 0.0447,0.1834 0.0777,0.368 0.13445,0.5504 0.0344,0.1064 0.0979,0.2085 0.13445,0.3145 0.0532,0.1561 0.0807,0.3154 0.13445,0.4717 0.0344,0.1059 0.1177,0.207 0.13444,0.3145 0.0301,0.1826 -0.0257,0.3675 0,0.5504 0.0172,0.1333 0.10911,0.2603 0.13445,0.3931 0.0215,0.1041 0,0.2097 0,0.3145 0,0.3407 0,0.6814 0,1.0221 0,0.5242 0,1.0483 0,1.5725 0,0.131 0,0.2621 0,0.3931 0,0.052 -0.0387,0.205 0,0.1572 0.30541,-0.3987 0.57689,-0.8059 0.86532,-1.2088"
       id="path4339"
       inkscape:connector-curvature="0" />
    <text
       xml:space="preserve"
       style="font-size:23.70026779px;font-style:normal;font-weight:normal;line-height:125%;letter-spacing:0px;word-spacing:0px;fill:#000000;fill-opacity:1;stroke:none;font-family:Sans"
       x="190.30096"
       y="1014.1028"
       id="text4341"
       sodipodi:linespacing="125%"><tspan
         sodipodi:role="line"
         id="tspan4343"
         x="190.30096"
         y="1014.1028">α</tspan></text>
    <flowRoot
       xml:space="preserve"
       id="flowRoot4345"
       style="font-size:12px;font-style:normal;font-weight:normal;line-height:125%;letter-spacing:0px;word-spacing:0px;fill:#000000;fill-opacity:1;stroke:none;font-family:Sans"
       transform="matrix(1.4683689,0,0,1.4683689,-644.71611,107.20813)"><flowRegion
         id="flowRegion4347"><rect
           id="rect4349"
           width="28.284271"
           height="20.152544"
           x="666.0946"
           y="623.50189" /></flowRegion><flowPara
         id="flowPara4351">y</flowPara></flowRoot>    <flowRoot
       xml:space="preserve"
       id="flowRoot4353"
       style="font-size:12px;font-style:normal;font-weight:normal;line-height:125%;letter-spacing:0px;word-spacing:0px;fill:#000000;fill-opacity:1;stroke:none;font-family:Sans"
       transform="matrix(1.1556535,0,0,1.1556535,-422.17872,412.28575)"><flowRegion
         id="flowRegion4355"><rect
           id="rect4357"
           width="40.305088"
           height="36.416"
           x="633.56769"
           y="440.00772" /></flowRegion><flowPara
         id="flowPara4359">y'</flowPara></flowRoot>    <flowRoot
       xml:space="preserve"
       id="flowRoot4361"
       style="font-size:12px;font-style:normal;font-weight:normal;line-height:125%;letter-spacing:0px;word-spacing:0px;fill:#000000;fill-opacity:1;stroke:none;font-family:Sans"
       transform="matrix(2.0642888,0,0,2.0642888,-475.29328,286.55686)"><flowRegion
         id="flowRegion4363"><rect
           id="rect4365"
           width="27.930717"
           height="24.748737"
           x="284.25693"
           y="251.91731" /></flowRegion><flowPara
         id="flowPara4367">z</flowPara></flowRoot>    <flowRoot
       xml:space="preserve"
       id="flowRoot4369"
       style="font-size:12px;font-style:normal;font-weight:normal;line-height:125%;letter-spacing:0px;word-spacing:0px;fill:#000000;fill-opacity:1;stroke:none;font-family:Sans"
       transform="matrix(1.4954125,0,0,1.4954125,-137.6692,389.66067)"><flowRegion
         id="flowRegion4371"><rect
           id="rect4373"
           width="34.648232"
           height="24.748737"
           x="98.287842"
           y="302.12189" /></flowRegion><flowPara
         id="flowPara4375">z'</flowPara></flowRoot>    <path
       sodipodi:type="arc"
       style="fill:#000000;fill-opacity:0;stroke:#060000;stroke-width:2;stroke-miterlimit:4;stroke-opacity:1;stroke-dasharray:none"
       id="path4377"
       sodipodi:cx="317.5"
       sodipodi:cy="609.86218"
       sodipodi:rx="12.5"
       sodipodi:ry="12.5"
       d="m 330,609.86218 c 0,6.90356 -5.59644,12.5 -12.5,12.5 -6.90356,0 -12.5,-5.59644 -12.5,-12.5 0,-6.90356 5.59644,-12.5 12.5,-12.5 6.90356,0 12.5,5.59644 12.5,12.5 z"
       transform="matrix(1.0273282,0,0,1.0273282,-194.0683,395.49332)" />
    <flowRoot
       xml:space="preserve"
       id="flowRoot4379"
       style="font-size:12px;font-style:normal;font-weight:normal;line-height:125%;letter-spacing:0px;word-spacing:0px;fill:#000000;fill-opacity:1;stroke:none;font-family:Sans"
       transform="matrix(2.0642888,0,0,2.0642888,-459.62307,-272.05365)"><flowRegion
         id="flowRegion4381"><rect
           id="rect4383"
           width="19.091883"
           height="23.688078"
           x="273.29678"
           y="623.14838" /></flowRegion><flowPara
         id="flowPara4385">x</flowPara></flowRoot>    <flowRoot
       xml:space="preserve"
       id="flowRoot4387"
       style="font-size:12px;font-style:normal;font-weight:normal;line-height:125%;letter-spacing:0px;word-spacing:0px;fill:#000000;fill-opacity:1;stroke:none;font-family:Sans"
       transform="matrix(1.4954125,0,0,1.4954125,-328.27721,56.027291)"><flowRegion
         id="flowRegion4389"><rect
           id="rect4391"
           width="35.001785"
           height="34.294678"
           x="313.60187"
           y="652.13977" /></flowRegion><flowPara
         id="flowPara4393">x'</flowPara></flowRoot>    <path
       sodipodi:type="arc"
       style="fill:#000000;fill-opacity:1;stroke:#060000;stroke-width:2;stroke-miterlimit:4;stroke-opacity:1;stroke-dasharray:none"
       id="path4397"
       sodipodi:cx="320"
       sodipodi:cy="612.36218"
       sodipodi:rx="5"
       sodipodi:ry="5"
       d="m 325,612.36218 c 0,2.76143 -2.23858,5 -5,5 -2.76142,0 -5,-2.23857 -5,-5 0,-2.76142 2.23858,-5 5,-5 2.76142,0 5,2.23858 5,5 z"
       transform="matrix(0.58387998,0,0,0.58387998,-54.924989,664.69697)" />
  </g>
</svg>
